<?xml version="1.0" standalone="no"?>
<!DOCTYPE svg PUBLIC "-//W3C//DTD SVG 20010904//EN"
 "http://www.w3.org/TR/2001/REC-SVG-20010904/DTD/svg10.dtd">
<svg version="1.0" xmlns="http://www.w3.org/2000/svg"
 width="698.000000pt" height="270.000000pt" viewBox="0 0 698.000000 270.000000"
 preserveAspectRatio="xMidYMid meet">

<g transform="translate(0.000000,270.000000) scale(0.100000,-0.100000)"
fill="#000000" stroke="none">
<path d="M2078 1975 c-52 -85 -142 -121 -348 -135 -225 -17 -326 -55 -437
-166 -101 -102 -150 -207 -159 -344 -10 -139 54 -305 156 -404 102 -101 236
-156 378 -156 47 0 83 2 81 4 -2 3 -38 12 -79 20 -176 37 -304 147 -359 309
-59 171 -14 368 112 489 97 94 190 132 343 143 193 13 279 47 320 126 13 26
33 159 23 159 -2 0 -16 -20 -31 -45z"/>
<path d="M1685 1639 c-53 -7 -127 -40 -184 -83 -41 -31 -36 -34 11 -7 74 44
187 45 281 3 122 -55 203 -247 153 -366 -14 -34 -14 -34 34 -81 l47 -47 21 29
c68 96 71 249 8 372 -14 27 -19 30 -37 21 -11 -6 -25 -9 -32 -7 -7 3 0 8 16
12 15 4 27 11 27 15 0 4 -19 24 -41 45 -80 72 -196 108 -304 94z"/>
<path d="M2240 1501 l25 -7 3 -174 c3 -193 0 -216 -26 -223 -9 -3 17 -5 58 -5
44 0 65 3 50 7 -34 9 -41 53 -38 235 l3 151 38 3 c30 3 43 -2 67 -27 24 -24
30 -38 30 -73 0 -52 -28 -85 -82 -99 -30 -8 -30 -8 11 -5 79 8 140 99 109 164
-22 46 -70 62 -178 61 -55 -1 -84 -4 -70 -8z"/>
<path d="M2690 1451 c-59 -4 -95 -9 -82 -13 22 -6 22 -9 22 -167 0 -142 -2
-161 -17 -171 -13 -7 9 -9 86 -8 103 3 104 3 108 28 2 18 1 21 -6 10 -5 -8 -8
-17 -6 -21 5 -6 -77 -1 -102 6 -9 3 -13 28 -13 80 l0 75 45 0 c31 0 47 -5 54
-17 9 -15 10 -13 11 12 l0 30 -55 -3 -55 -4 0 71 0 71 44 0 c27 0 51 -6 60
-16 15 -14 16 -13 16 15 0 17 -1 30 -2 29 -2 -1 -50 -4 -108 -7z"/>
<path d="M2890 1443 c0 -6 -3 -20 -7 -30 -6 -17 -6 -17 14 0 13 11 36 17 71
17 l52 0 0 -114 c0 -109 1 -114 20 -109 18 5 20 14 20 114 l0 109 49 0 c32 0
55 -6 65 -16 15 -14 16 -13 16 13 l0 28 -150 0 c-108 0 -150 -3 -150 -12z"/>
<path d="M3377 1445 c-22 -7 -49 -23 -62 -35 -28 -27 -58 -85 -53 -106 3 -13
6 -13 26 1 12 9 22 25 22 36 0 10 15 35 33 55 27 30 40 36 88 41 77 8 127 -10
145 -51 l13 -31 1 46 0 46 -46 7 c-71 9 -125 7 -167 -9z"/>
<path d="M4200 1282 c0 -179 0 -181 -22 -185 -13 -2 6 -4 42 -4 36 -1 56 2 45
4 -11 3 -23 10 -27 17 -4 6 -8 67 -8 136 l1 125 144 -150 144 -150 1 115 c0
170 9 248 29 253 9 3 -11 5 -44 4 -33 0 -50 -2 -38 -4 31 -6 34 -27 31 -168
l-3 -119 -138 149 c-76 83 -143 152 -148 153 -5 2 -9 -69 -9 -176z"/>
<path d="M4771 1440 c-6 -14 -37 -92 -69 -175 -45 -118 -63 -152 -82 -162 -23
-12 -21 -13 30 -13 37 0 50 3 40 9 -12 8 -12 17 3 65 l18 56 63 0 62 0 22 -53
c12 -29 22 -58 22 -65 0 -8 17 -12 53 -11 28 1 42 4 30 6 -29 6 -40 25 -107
193 -75 186 -72 180 -85 150z m33 -132 l25 -68 -54 0 -55 0 25 66 c14 37 25
69 25 72 0 13 10 -8 34 -70z"/>
<path d="M5521 1438 c-86 -223 -124 -316 -136 -327 -23 -23 -63 2 -155 94
l-84 85 64 66 c36 36 79 72 95 80 l30 13 -48 1 c-31 0 -46 -4 -42 -10 4 -6
-27 -45 -69 -88 l-76 -77 0 70 c0 73 5 88 30 98 8 3 -14 5 -50 6 -49 0 -59 -3
-42 -9 22 -9 22 -13 22 -169 0 -142 -2 -161 -17 -170 -14 -8 -2 -10 47 -10 36
1 56 4 45 6 -30 8 -35 21 -35 103 l0 75 83 -82 c45 -44 92 -86 104 -92 12 -6
57 -10 100 -10 43 1 70 3 61 6 -22 6 -22 13 -1 74 l18 49 61 0 61 0 22 -51
c11 -29 21 -58 21 -65 0 -10 14 -14 53 -13 46 0 49 2 25 10 -27 10 -48 53
-143 292 -15 37 -29 67 -31 67 -3 0 -8 -10 -13 -22z m34 -131 l25 -67 -50 0
c-28 0 -50 4 -50 8 0 14 42 133 46 130 2 -2 15 -34 29 -71z"/>
<path d="M3696 1443 c29 -6 34 -28 34 -158 0 -136 -7 -183 -29 -188 -9 -3 16
-5 54 -5 43 0 60 3 45 7 -24 7 -25 11 -28 94 l-3 87 106 0 105 0 0 -85 c0 -69
-3 -86 -17 -94 -14 -8 -2 -10 47 -10 49 0 59 3 43 9 -23 9 -23 13 -23 174 0
148 2 165 18 169 9 3 -12 5 -48 4 -36 0 -55 -2 -42 -4 20 -4 22 -10 22 -74 l0
-69 -105 0 -105 0 0 65 c0 50 4 66 18 74 13 8 1 10 -48 9 -36 0 -55 -3 -44 -5z"/>
<path d="M3277 1289 c-46 -26 0 -138 73 -179 38 -21 58 -25 132 -25 47 0 89 2
91 5 3 3 8 23 12 45 6 38 6 39 -7 15 -22 -41 -63 -55 -126 -42 -83 18 -123 56
-145 140 -11 43 -15 49 -30 41z"/>
<path d="M3027 1193 c-4 -3 -7 -20 -7 -37 0 -35 -8 -50 -30 -59 -8 -3 17 -5
55 -5 39 0 60 3 49 5 -23 4 -34 29 -34 76 0 25 -17 36 -33 20z"/>
<path d="M1510 995 c12 -13 49 -36 83 -51 52 -24 74 -28 142 -28 44 1 93 7
109 13 l29 12 -32 33 c-33 34 -34 34 -68 20 -19 -8 -62 -18 -97 -21 -52 -5
-72 -1 -125 20 l-63 26 22 -24z"/>
</g>
</svg>
